<svg width="28" height="28" viewBox="0 0 28 28" fill="none" xmlns="http://www.w3.org/2000/svg">
<path d="M4.66665 23.3333C4.02498 23.3333 3.47567 23.1049 3.01873 22.6479C2.56179 22.191 2.33331 21.6417 2.33331 21V6.99999C2.33331 6.35832 2.56179 5.80902 3.01873 5.35207C3.47567 4.89513 4.02498 4.66666 4.66665 4.66666H23.3333C23.975 4.66666 24.5243 4.89513 24.9812 5.35207C25.4382 5.80902 25.6666 6.35832 25.6666 6.99999V21C25.6666 21.6417 25.4382 22.191 24.9812 22.6479C24.5243 23.1049 23.975 23.3333 23.3333 23.3333H4.66665ZM14 15.1667L4.66665 9.33332V21H23.3333V9.33332L14 15.1667ZM14 12.8333L23.3333 6.99999H4.66665L14 12.8333ZM4.66665 9.33332V6.99999V21V9.33332Z" fill="#1D1B20"/>
</svg>
